STARTFONT 2.1
COMMENT Font converted from PSF2 to BDF.
FONT -Unknown-LiberationMono_Bold_utf-Medium-R-Normal--30-300-72-72-C-0-FontSpecific-0
SIZE 30 72 72
FONTBOUNDINGBOX 16 29 0 -7
STARTPROPERTIES 17
POINT_SIZE 300
PIXEL_SIZE 30
RESOLUTION_X 72
RESOLUTION_Y 72
FONT_ASCENT 23
FONT_DESCENT 7
AVERAGE_WIDTH 0
SPACING "C"
FOUNDRY "Unknown"
FAMILY_NAME "LiberationMono_Bold_utf"
WEIGHT_NAME "Medium"
SLANT "R"
SETWIDTH_NAME "Normal"
ADD_STYLE_NAME ""
CHARSET_REGISTRY "FontSpecific"
CHARSET_ENCODING "0"
_GBDFED_INFO "Edited with gbdfed 1.6."
ENDPROPERTIES
CHARS 221
STARTCHAR char0
ENCODING 0
SWIDTH 533 0
DWIDTH 16 0
BBX 16 29 0 -7
BITMAP
0000
0000
0000
0000
0000
0000
0000
2008
77DC
3FF8
1FF0
3C78
3838
3838
3838
3C78
1FF0
3FF8
77DC
2008
0000
0000
0000
0000
0000
0000
0000
0000
0000
ENDCHAR
STARTCHAR char1
ENCODING 1
SWIDTH 533 0
DWIDTH 16 0
BBX 16 29 0 -7
BITMAP
0000
0000
0000
0000
0000
0000
0000
0000
0FC0
1860
2010
4008
CCCC
8CC4
8004
8004
8844
C84C
4788
2010
1860
0FC0
0000
0000
0000
0000
0000
0000
0000
ENDCHAR
STARTCHAR char2
ENCODING 2
SWIDTH 533 0
DWIDTH 16 0
BBX 16 29 0 -7
BITMAP
0000
0000
0000
0000
0000
0000
0000
0000
0FC0
1FE0
3FF0
7FF8
F33C
F33C
FFFC
FFFC
FFFC
F7BC
7878
3FF0
1FE0
0FC0
0000
0000
0000
0000
0000
0000
0000
ENDCHAR
STARTCHAR char3
ENCODING 3
SWIDTH 533 0
DWIDTH 16 0
BBX 16 29 0 -7
BITMAP
0000
0000
0000
0000
0000
0000
0000
0000
3C78
7EFC
7EFC
7FFC
7FFC
3FF8
3FF8
1FF0
0FE0
07C0
07C0
0380
0100
0100
0000
0000
0000
0000
0000
0000
0000
ENDCHAR
STARTCHAR char4
ENCODING 4
SWIDTH 533 0
DWIDTH 16 0
BBX 16 29 0 -7
BITMAP
0000
0000
0000
0000
0000
0000
0000
0100
0180
03C0
07E0
0FE0
0FF0
1FF8
3FFC
1FF8
0FF0
0FF0
07E0
03C0
0180
0100
0000
0000
0000
0000
0000
0000
0000
ENDCHAR
STARTCHAR char5
ENCODING 5
SWIDTH 533 0
DWIDTH 16 0
BBX 16 29 0 -7
BITMAP
0000
0000
0000
0000
0000
0000
0000
07C0
0FE0
0FE0
0FE0
0FE0
07C0
3FF8
7FFC
7FFC
7FFC
7FFC
3D78
0100
0380
1FF0
0000
0000
0000
0000
0000
0000
0000
ENDCHAR
STARTCHAR char6
ENCODING 6
SWIDTH 533 0
DWIDTH 16 0
BBX 16 29 0 -7
BITMAP
0000
0000
0000
0000
0000
0000
0000
0100
0100
0380
07C0
0FE0
1FF0
3FF8
7FFC
7FFC
7FFC
7FFC
3D78
0100
0380
1FF0
0000
0000
0000
0000
0000
0000
0000
ENDCHAR
STARTCHAR char7
ENCODING 7
SWIDTH 533 0
DWIDTH 16 0
BBX 16 29 0 -7
BITMAP
0000
0000
0000
0000
0000
0000
0000
0000
0000
0000
0380
07C0
0FE0
0FE0
0FE0
07C0
0380
0000
0000
0000
0000
0000
0000
0000
0000
0000
0000
0000
0000
ENDCHAR
STARTCHAR char8
ENCODING 8
SWIDTH 533 0
DWIDTH 16 0
BBX 16 29 0 -7
BITMAP
0000
0000
0000
0000
0000
0000
0000
0000
FFFC
FFFC
F87C
E01C
E01C
C00C
C00C
C00C
C00C
E01C
E01C
F87C
FFFC
FFFC
0000
0000
0000
0000
0000
0000
0000
ENDCHAR
STARTCHAR char9
ENCODING 9
SWIDTH 533 0
DWIDTH 16 0
BBX 16 29 0 -7
BITMAP
0000
0000
0000
0000
0000
0000
0000
0000
0000
07C0
0820
1010
2008
2008
2008
2008
2008
1010
0820
07C0
0000
0000
0000
0000
0000
0000
0000
0000
0000
ENDCHAR
STARTCHAR char10
ENCODING 10
SWIDTH 533 0
DWIDTH 16 0
BBX 16 29 0 -7
BITMAP
0000
0000
0000
0000
0000
0000
0000
0000
FFFC
FFFC
F87C
E79C
EFDC
DFEC
DFEC
DFEC
DFEC
EFDC
E79C
F87C
FFFC
FFFC
0000
0000
0000
0000
0000
0000
0000
ENDCHAR
STARTCHAR char11
ENCODING 11
SWIDTH 533 0
DWIDTH 16 0
BBX 16 29 0 -7
BITMAP
0000
0000
0000
0000
0000
0000
0000
0000
0000
0000
00F0
0030
0050
0E90
1100
2080
2080
2080
1100
0E00
0000
0000
0000
0000
0000
0000
0000
0000
0000
ENDCHAR
STARTCHAR char12
ENCODING 12
SWIDTH 533 0
DWIDTH 16 0
BBX 16 29 0 -7
BITMAP
0000
0000
0000
0000
0000
0000
0000
0000
0380
0440
0820
0820
0820
0440
0380
0100
0100
0FE0
0100
0100
0100
0000
0000
0000
0000
0000
0000
0000
0000
ENDCHAR
STARTCHAR char13
ENCODING 13
SWIDTH 533 0
DWIDTH 16 0
BBX 16 29 0 -7
BITMAP
0000
0000
0000
0000
0000
0000
0000
0000
0100
0100
0180
01C0
0140
0160
0120
0120
0120
0120
0F40
1F00
1F00
0E00
0000
0000
0000
0000
0000
0000
0000
ENDCHAR
STARTCHAR char14
ENCODING 14
SWIDTH 533 0
DWIDTH 16 0
BBX 16 29 0 -7
BITMAP
0000
0000
0000
0000
0000
0000
0000
0000
0078
07F8
0608
0418
07F8
0788
0408
0408
0408
0408
0478
3C78
7C78
7C00
1000
0000
0000
0000
0000
0000
0000
ENDCHAR
STARTCHAR char15
ENCODING 15
SWIDTH 533 0
DWIDTH 16 0
BBX 16 29 0 -7
BITMAP
0000
0000
0000
0000
0000
0000
0000
0000
0000
0100
0100
2108
17D0
0C60
1830
1010
F01E
1010
1830
0C60
17D0
2108
0100
0100
0000
0000
0000
0000
0000
ENDCHAR
STARTCHAR char16
ENCODING 16
SWIDTH 533 0
DWIDTH 16 0
BBX 16 29 0 -7
BITMAP
0000
0000
0000
0000
0000
0000
0000
4000
7000
7C00
7F00
7F80
7FE0
7FF8
7FFE
7FF8
7FE0
7F80
7F00
7C00
7000
4000
0000
0000
0000
0000
0000
0000
0000
ENDCHAR
STARTCHAR char17
ENCODING 17
SWIDTH 533 0
DWIDTH 16 0
BBX 16 29 0 -7
BITMAP
0000
0000
0000
0000
0000
0000
0000
0004
001C
007C
01FC
03FC
0FFC
3FFC
FFFC
3FFC
0FFC
03FC
01FC
007C
001C
0004
0000
0000
0000
0000
0000
0000
0000
ENDCHAR
STARTCHAR char18
ENCODING 18
SWIDTH 533 0
DWIDTH 16 0
BBX 16 29 0 -7
BITMAP
0000
0000
0000
0000
0000
0000
0000
0000
0100
0380
0380
0540
0100
0100
0100
0100
0100
0100
0100
0540
0380
0380
0100
0000
0000
0000
0000
0000
0000
ENDCHAR
STARTCHAR char19
ENCODING 19
SWIDTH 533 0
DWIDTH 16 0
BBX 16 29 0 -7
BITMAP
0000
0000
0000
0000
0000
0000
3C78
3C78
3C78
3C78
3C78
3C78
3C78
3C78
3C78
3C78
3C78
0000
0000
3C78
3C78
3C78
0000
0000
0000
0000
0000
0000
0000
ENDCHAR
STARTCHAR char20
ENCODING 20
SWIDTH 533 0
DWIDTH 16 0
BBX 16 29 0 -7
BITMAP
0000
0000
0000
0000
0000
0000
1FFC
3FFC
7FFC
7F30
7F30
7F30
7F30
3F30
1F30
0330
0330
0330
0330
0330
0330
0330
0330
0330
0330
0330
0000
0000
0000
ENDCHAR
STARTCHAR char21
ENCODING 21
SWIDTH 533 0
DWIDTH 16 0
BBX 16 29 0 -7
BITMAP
0000
0000
0000
0000
0FC0
1FF0
3878
3838
3800
3F00
1FE0
1FF0
3878
3838
3838
3E78
1FF0
07F0
00F8
0038
3838
3C38
1FF0
07E0
0000
0000
0000
0000
0000
ENDCHAR
STARTCHAR char22
ENCODING 22
SWIDTH 533 0
DWIDTH 16 0
BBX 16 29 0 -7
BITMAP
0000
0000
0000
0000
0000
0000
0000
0000
0000
0000
0000
0000
0000
0000
0000
FFFE
FFFE
FFFE
FFFE
FFFE
FFFE
0000
0000
0000
0000
0000
0000
0000
0000
ENDCHAR
STARTCHAR char23
ENCODING 23
SWIDTH 533 0
DWIDTH 16 0
BBX 16 29 0 -7
BITMAP
0000
0000
0000
0000
0000
0000
0000
0000
0100
0380
0380
0540
0100
0100
0100
0100
0100
0100
0100
0540
0380
0380
0100
0000
07C0
0000
0000
0000
0000
ENDCHAR
STARTCHAR char24
ENCODING 24
SWIDTH 533 0
DWIDTH 16 0
BBX 16 29 0 -7
BITMAP
0000
0000
0000
0000
0000
0000
0000
0000
0100
0380
0380
0540
0100
0100
0100
0100
0100
0100
0100
0100
0100
0100
0100
0000
0000
0000
0000
0000
0000
ENDCHAR
STARTCHAR char25
ENCODING 25
SWIDTH 533 0
DWIDTH 16 0
BBX 16 29 0 -7
BITMAP
0000
0000
0000
0000
0000
0000
0000
0000
0100
0100
0100
0100
0100
0100
0100
0100
0100
0100
0100
0540
0380
0380
0100
0000
0000
0000
0000
0000
0000
ENDCHAR
STARTCHAR char26
ENCODING 26
SWIDTH 533 0
DWIDTH 16 0
BBX 16 29 0 -7
BITMAP
0000
0000
0000
0000
0000
0000
0000
0000
0000
0000
0000
0000
0000
0010
000C
FFFE
000C
0010
0000
0000
0000
0000
0000
0000
0000
0000
0000
0000
0000
ENDCHAR
STARTCHAR char27
ENCODING 27
SWIDTH 533 0
DWIDTH 16 0
BBX 16 29 0 -7
BITMAP
0000
0000
0000
0000
0000
0000
0000
0000
0000
0000
0000
0000
0000
1000
6000
FFFE
6000
1000
0000
0000
0000
0000
0000
0000
0000
0000
0000
0000
0000
ENDCHAR
STARTCHAR char28
ENCODING 28
SWIDTH 533 0
DWIDTH 16 0
BBX 16 29 0 -7
BITMAP
0000
0000
0000
0000
0000
0000
0000
4000
4000
4000
4000
4000
4000
4000
4000
4000
4000
4000
4000
4000
4000
7FFC
0000
0000
0000
0000
0000
0000
0000
ENDCHAR
STARTCHAR char29
ENCODING 29
SWIDTH 533 0
DWIDTH 16 0
BBX 16 29 0 -7
BITMAP
0000
0000
0000
0000
0000
0000
0000
0000
0000
0000
0000
0000
0000
1010
600C
FFFE
600C
1010
0000
0000
0000
0000
0000
0000
0000
0000
0000
0000
0000
ENDCHAR
STARTCHAR char30
ENCODING 30
SWIDTH 533 0
DWIDTH 16 0
BBX 16 29 0 -7
BITMAP
0000
0000
0000
0000
0000
0000
0000
0100
0100
0380
0380
07C0
07C0
0FE0
1FF0
1FF0
3FF8
3FF8
7FFC
7FFC
FFFE
0000
0000
0000
0000
0000
0000
0000
0000
ENDCHAR
STARTCHAR char31
ENCODING 31
SWIDTH 533 0
DWIDTH 16 0
BBX 16 29 0 -7
BITMAP
0000
0000
0000
0000
0000
0000
0000
0000
FFFE
7FFC
7FFC
3FF8
3FF8
1FF0
1FF0
0FE0
07C0
07C0
0380
0380
0100
0100
0000
0000
0000
0000
0000
0000
0000
ENDCHAR
STARTCHAR char32
ENCODING 32
SWIDTH 533 0
DWIDTH 16 0
BBX 16 29 0 -7
BITMAP
0000
0000
0000
0000
0000
0000
0000
0000
0000
0000
0000
0000
0000
0000
0000
0000
0000
0000
0000
0000
0000
0000
0000
0000
0000
0000
0000
0000
0000
ENDCHAR
STARTCHAR char33
ENCODING 33
SWIDTH 533 0
DWIDTH 16 0
BBX 16 29 0 -7
BITMAP
0000
0000
0000
0000
0000
0000
0780
0780
0780
0780
0780
0780
0780
0780
0780
0780
0780
0000
0000
0780
0780
0780
0000
0000
0000
0000
0000
0000
0000
ENDCHAR
STARTCHAR char34
ENCODING 34
SWIDTH 533 0
DWIDTH 16 0
BBX 16 29 0 -7
BITMAP
0000
0000
0000
0000
1E78
1E78
1E78
1E78
1E78
1E78
1E78
0E70
0000
0000
0000
0000
0000
0000
0000
0000
0000
0000
0000
0000
0000
0000
0000
0000
0000
ENDCHAR
STARTCHAR char35
ENCODING 35
SWIDTH 533 0
DWIDTH 16 0
BBX 16 29 0 -7
BITMAP
0000
0000
0000
0000
0000
0000
0618
0618
0C30
3FFC
3FFC
0C30
0C30
1860
1860
7FFC
7FFC
1860
1860
30C0
30C0
30C0
0000
0000
0000
0000
0000
0000
0000
ENDCHAR
STARTCHAR char36
ENCODING 36
SWIDTH 533 0
DWIDTH 16 0
BBX 16 29 0 -7
BITMAP
0000
0000
0000
0000
0180
0180
0FE0
1FF8
3FF8
3DBC
3DBC
3D80
1FC0
1FF0
07F8
01FC
01BC
3DBC
3DBC
1FFC
1FF8
07E0
0180
0180
0000
0000
0000
0000
0000
ENDCHAR
STARTCHAR char37
ENCODING 37
SWIDTH 533 0
DWIDTH 16 0
BBX 16 29 0 -7
BITMAP
0000
0000
0000
0000
0000
0000
7C0C
7C18
C630
C630
C660
C6C0
7CC0
7D80
037C
067C
06C6
0CC6
18C6
18C6
307C
6078
0000
0000
0000
0000
0000
0000
0000
ENDCHAR
STARTCHAR char38
ENCODING 38
SWIDTH 533 0
DWIDTH 16 0
BBX 16 29 0 -7
BITMAP
0000
0000
0000
0000
0000
0000
03C0
07F0
0E70
0E70
0EF0
0FE0
0780
1F1C
3F1C
7B9C
71D8
70F8
7070
78FC
3FFE
0F8E
0000
0000
0000
0000
0000
0000
0000
ENDCHAR
STARTCHAR char39
ENCODING 39
SWIDTH 533 0
DWIDTH 16 0
BBX 16 29 0 -7
BITMAP
0000
0000
0000
0000
03C0
03C0
03C0
03C0
03C0
03C0
03C0
01C0
0000
0000
0000
0000
0000
0000
0000
0000
0000
0000
0000
0000
0000
0000
0000
0000
0000
ENDCHAR
STARTCHAR char40
ENCODING 40
SWIDTH 533 0
DWIDTH 16 0
BBX 16 29 0 -7
BITMAP
0000
0000
0000
0000
01E0
03C0
03C0
0780
0780
0780
0F00
0F00
0F00
0F00
0F00
0F00
0F00
0F00
0F00
0F00
0F00
0780
0780
0780
03C0
03C0
01E0
0000
0000
ENDCHAR
STARTCHAR char41
ENCODING 41
SWIDTH 533 0
DWIDTH 16 0
BBX 16 29 0 -7
BITMAP
0000
0000
0000
0000
0F00
0780
0780
03C0
03C0
03C0
03E0
01E0
01E0
01E0
01E0
01E0
01E0
01E0
01E0
01E0
03E0
03C0
03C0
03C0
0780
0780
0F00
0000
0000
ENDCHAR
STARTCHAR char42
ENCODING 42
SWIDTH 533 0
DWIDTH 16 0
BBX 16 29 0 -7
BITMAP
0000
0000
0000
0000
0380
0380
1390
3FF8
3FF8
07C0
0EE0
1C70
0C60
0000
0000
0000
0000
0000
0000
0000
0000
0000
0000
0000
0000
0000
0000
0000
0000
ENDCHAR
STARTCHAR char43
ENCODING 43
SWIDTH 533 0
DWIDTH 16 0
BBX 16 29 0 -7
BITMAP
0000
0000
0000
0000
0000
0000
0000
0380
0380
0380
0380
0380
7FFC
7FFC
7FFC
0380
0380
0380
0380
0380
0000
0000
0000
0000
0000
0000
0000
0000
0000
ENDCHAR
STARTCHAR char44
ENCODING 44
SWIDTH 533 0
DWIDTH 16 0
BBX 16 29 0 -7
BITMAP
0000
0000
0000
0000
0000
0000
0000
0000
0000
0000
0000
0000
0000
0000
0000
0000
0000
0000
03C0
0380
0780
0700
0700
0600
0E00
0C00
0000
0000
0000
ENDCHAR
STARTCHAR char45
ENCODING 45
SWIDTH 533 0
DWIDTH 16 0
BBX 16 29 0 -7
BITMAP
0000
0000
0000
0000
0000
0000
0000
0000
0000
0000
0000
0000
0000
0000
0FE0
0FE0
0000
0000
0000
0000
0000
0000
0000
0000
0000
0000
0000
0000
0000
ENDCHAR
STARTCHAR char46
ENCODING 46
SWIDTH 533 0
DWIDTH 16 0
BBX 16 29 0 -7
BITMAP
0000
0000
0000
0000
0000
0000
0000
0000
0000
0000
0000
0000
0000
0000
0000
0000
0000
0000
0780
0780
0780
0780
0000
0000
0000
0000
0000
0000
0000
ENDCHAR
STARTCHAR char47
ENCODING 47
SWIDTH 533 0
DWIDTH 16 0
BBX 16 29 0 -7
BITMAP
0000
0000
0000
0000
001C
0038
0038
0070
0060
00E0
00C0
01C0
0380
0380
0700
0700
0E00
0C00
1C00
3800
3800
7000
0000
0000
0000
0000
0000
0000
0000
ENDCHAR
STARTCHAR char48
ENCODING 48
SWIDTH 533 0
DWIDTH 16 0
BBX 16 29 0 -7
BITMAP
0000
0000
0000
0000
0000
0000
07C0
1FF0
3FF8
3C78
783C
783C
7BBC
7BBC
7BBC
783C
783C
783C
3C78
3FF8
1FF0
07C0
0000
0000
0000
0000
0000
0000
0000
ENDCHAR
STARTCHAR char49
ENCODING 49
SWIDTH 533 0
DWIDTH 16 0
BBX 16 29 0 -7
BITMAP
0000
0000
0000
0000
0000
0000
03C0
07C0
1FC0
7FC0
7BC0
63C0
03C0
03C0
03C0
03C0
03C0
03C0
03C0
7FFC
7FFC
7FFC
0000
0000
0000
0000
0000
0000
0000
ENDCHAR
STARTCHAR char50
ENCODING 50
SWIDTH 533 0
DWIDTH 16 0
BBX 16 29 0 -7
BITMAP
0000
0000
0000
0000
0000
0000
07E0
0FF8
1FFC
3E3C
3C3C
003C
0078
00F0
03E0
07C0
0F00
1E00
1C00
3FFC
3FFC
3FFC
0000
0000
0000
0000
0000
0000
0000
ENDCHAR
STARTCHAR char51
ENCODING 51
SWIDTH 533 0
DWIDTH 16 0
BBX 16 29 0 -7
BITMAP
0000
0000
0000
0000
0000
0000
0FE0
3FF8
7FFC
787C
003C
007C
07F0
07C0
07F8
007C
003C
783C
7C7C
3FF8
1FF8
0FE0
0000
0000
0000
0000
0000
0000
0000
ENDCHAR
STARTCHAR char52
ENCODING 52
SWIDTH 533 0
DWIDTH 16 0
BBX 16 29 0 -7
BITMAP
0000
0000
0000
0000
0000
0000
01F0
03F0
03F0
07F0
06F0
0EF0
1CF0
18F0
38F0
70F0
7FFC
7FFC
7FFC
00F0
00F0
00F0
0000
0000
0000
0000
0000
0000
0000
ENDCHAR
STARTCHAR char53
ENCODING 53
SWIDTH 533 0
DWIDTH 16 0
BBX 16 29 0 -7
BITMAP
0000
0000
0000
0000
0000
0000
1FF8
3FF8
3FF8
3C00
3C00
3DE0
3FF8
3FF8
3C7C
003C
003C
783C
7C7C
3FF8
1FF0
0FC0
0000
0000
0000
0000
0000
0000
0000
ENDCHAR
STARTCHAR char54
ENCODING 54
SWIDTH 533 0
DWIDTH 16 0
BBX 16 29 0 -7
BITMAP
0000
0000
0000
0000
0000
0000
03E0
0FF8
1FFC
1E3C
3C00
3DE0
3FF8
3FF8
3E7C
3C3C
3C3C
3C3C
1E7C
1FF8
0FF0
03E0
0000
0000
0000
0000
0000
0000
0000
ENDCHAR
STARTCHAR char55
ENCODING 55
SWIDTH 533 0
DWIDTH 16 0
BBX 16 29 0 -7
BITMAP
0000
0000
0000
0000
0000
0000
3FFC
3FFC
3FFC
003C
0078
00F0
01E0
01E0
03C0
03C0
0780
0780
0F00
0F00
0F00
0F00
0000
0000
0000
0000
0000
0000
0000
ENDCHAR
STARTCHAR char56
ENCODING 56
SWIDTH 533 0
DWIDTH 16 0
BBX 16 29 0 -7
BITMAP
0000
0000
0000
0000
0000
0000
07E0
1FF8
3FFC
3C3C
3C3C
3C3C
1FF8
07E0
1FF8
3E7C
3C3C
3C3C
3E7C
1FF8
1FF8
07E0
0000
0000
0000
0000
0000
0000
0000
ENDCHAR
STARTCHAR char57
ENCODING 57
SWIDTH 533 0
DWIDTH 16 0
BBX 16 29 0 -7
BITMAP
0000
0000
0000
0000
0000
0000
07E0
1FF0
1FF8
3E78
3C3C
3C3C
3E7C
1FFC
1FFC
0FBC
003C
3C3C
3E78
1FF8
1FF0
07C0
0000
0000
0000
0000
0000
0000
0000
ENDCHAR
STARTCHAR char58
ENCODING 58
SWIDTH 533 0
DWIDTH 16 0
BBX 16 29 0 -7
BITMAP
0000
0000
0000
0000
0000
0000
0000
0000
0780
0780
0780
0780
0000
0000
0000
0000
0000
0000
0780
0780
0780
0780
0000
0000
0000
0000
0000
0000
0000
ENDCHAR
STARTCHAR char59
ENCODING 59
SWIDTH 533 0
DWIDTH 16 0
BBX 16 29 0 -7
BITMAP
0000
0000
0000
0000
0000
0000
0000
0000
03C0
03C0
03C0
03C0
0000
0000
0000
0000
0000
0000
03C0
0380
0780
0700
0700
0600
0E00
0C00
0000
0000
0000
ENDCHAR
STARTCHAR char60
ENCODING 60
SWIDTH 533 0
DWIDTH 16 0
BBX 16 29 0 -7
BITMAP
0000
0000
0000
0000
0000
0000
0000
000C
007C
03FC
1FF8
7FC0
7C00
6000
7C00
7F80
1FF8
03FC
007C
000C
0000
0000
0000
0000
0000
0000
0000
0000
0000
ENDCHAR
STARTCHAR char61
ENCODING 61
SWIDTH 533 0
DWIDTH 16 0
BBX 16 29 0 -7
BITMAP
0000
0000
0000
0000
0000
0000
0000
0000
0000
7FFC
7FFC
7FFC
0000
0000
0000
7FFC
7FFC
7FFC
0000
0000
0000
0000
0000
0000
0000
0000
0000
0000
0000
ENDCHAR
STARTCHAR char62
ENCODING 62
SWIDTH 533 0
DWIDTH 16 0
BBX 16 29 0 -7
BITMAP
0000
0000
0000
0000
0000
0000
0000
6000
7C00
7F80
3FF0
07FC
007C
000C
007C
07FC
3FF0
7F80
7C00
6000
0000
0000
0000
0000
0000
0000
0000
0000
0000
ENDCHAR
STARTCHAR char63
ENCODING 63
SWIDTH 533 0
DWIDTH 16 0
BBX 16 29 0 -7
BITMAP
0000
0000
0000
0000
0000
0000
07E0
1FF8
3FFC
7C7C
783C
003C
00F8
01E0
03C0
0780
0000
0000
0000
0780
0780
0780
0000
0000
0000
0000
0000
0000
0000
ENDCHAR
STARTCHAR char64
ENCODING 64
SWIDTH 533 0
DWIDTH 16 0
BBX 16 29 0 -7
BITMAP
0000
0000
0000
0000
03E0
07F0
0E38
181C
39BC
33FE
3676
6666
6C66
6C66
6C66
6C66
6C46
6CCC
6CCC
77F8
3770
3800
1C18
0FF0
07C0
0000
0000
0000
0000
ENDCHAR
STARTCHAR char65
ENCODING 65
SWIDTH 533 0
DWIDTH 16 0
BBX 16 29 0 -7
BITMAP
0000
0000
0000
0000
0000
0000
07C0
0FE0
0EE0
0EE0
1EF0
1EF0
1E70
3C70
3C78
3FF8
3FF8
7FFC
783C
783C
F83E
F01E
0000
0000
0000
0000
0000
0000
0000
ENDCHAR
STARTCHAR char66
ENCODING 66
SWIDTH 533 0
DWIDTH 16 0
BBX 16 29 0 -7
BITMAP
0000
0000
0000
0000
0000
0000
3FF0
3FF8
3FFC
3C3C
3C3C
3C3C
3FF8
3FE0
3FFC
3C3E
3C1E
3C1E
3C3E
3FFE
3FFC
3FF0
0000
0000
0000
0000
0000
0000
0000
ENDCHAR
STARTCHAR char67
ENCODING 67
SWIDTH 533 0
DWIDTH 16 0
BBX 16 29 0 -7
BITMAP
0000
0000
0000
0000
0000
0000
07C0
1FF0
3FF8
3C78
7C3C
7830
7800
7800
7800
7800
783C
7C3C
3C7C
3FF8
1FF0
07E0
0000
0000
0000
0000
0000
0000
0000
ENDCHAR
STARTCHAR char68
ENCODING 68
SWIDTH 533 0
DWIDTH 16 0
BBX 16 29 0 -7
BITMAP
0000
0000
0000
0000
0000
0000
3FC0
3FF0
3FF8
3C7C
3C3C
3C1E
3C1E
3C1E
3C1E
3C1E
3C1E
3C3C
3C7C
3FF8
3FF0
3FE0
0000
0000
0000
0000
0000
0000
0000
ENDCHAR
STARTCHAR char69
ENCODING 69
SWIDTH 533 0
DWIDTH 16 0
BBX 16 29 0 -7
BITMAP
0000
0000
0000
0000
0000
0000
3FFC
3FFC
3FFC
3C00
3C00
3C00
3FF8
3FF8
3FF8
3C00
3C00
3C00
3C00
3FFC
3FFC
3FFC
0000
0000
0000
0000
0000
0000
0000
ENDCHAR
STARTCHAR char70
ENCODING 70
SWIDTH 533 0
DWIDTH 16 0
BBX 16 29 0 -7
BITMAP
0000
0000
0000
0000
0000
0000
3FFC
3FFC
3FFC
3C00
3C00
3C00
3FF8
3FF8
3FF8
3C00
3C00
3C00
3C00
3C00
3C00
3C00
0000
0000
0000
0000
0000
0000
0000
ENDCHAR
STARTCHAR char71
ENCODING 71
SWIDTH 533 0
DWIDTH 16 0
BBX 16 29 0 -7
BITMAP
0000
0000
0000
0000
0000
0000
07E0
1FF0
3FF8
3C7C
7C38
7800
7800
79FC
79FC
79FC
783C
3C3C
3C3C
3FFC
1FF8
07E0
0000
0000
0000
0000
0000
0000
0000
ENDCHAR
STARTCHAR char72
ENCODING 72
SWIDTH 533 0
DWIDTH 16 0
BBX 16 29 0 -7
BITMAP
0000
0000
0000
0000
0000
0000
3C78
3C78
3C78
3C78
3C78
3C78
3FF8
3FF8
3FF8
3C78
3C78
3C78
3C78
3C78
3C78
3C78
0000
0000
0000
0000
0000
0000
0000
ENDCHAR
STARTCHAR char73
ENCODING 73
SWIDTH 533 0
DWIDTH 16 0
BBX 16 29 0 -7
BITMAP
0000
0000
0000
0000
0000
0000
3FFC
3FFC
3FFC
03C0
03C0
03C0
03C0
03C0
03C0
03C0
03C0
03C0
03C0
3FFC
3FFC
3FFC
0000
0000
0000
0000
0000
0000
0000
ENDCHAR
STARTCHAR char74
ENCODING 74
SWIDTH 533 0
DWIDTH 16 0
BBX 16 29 0 -7
BITMAP
0000
0000
0000
0000
0000
0000
07F8
07F8
07F8
0078
0078
0078
0078
0078
0078
0078
7878
7878
3CF8
3FF0
1FE0
0FC0
0000
0000
0000
0000
0000
0000
0000
ENDCHAR
STARTCHAR char75
ENCODING 75
SWIDTH 533 0
DWIDTH 16 0
BBX 16 29 0 -7
BITMAP
0000
0000
0000
0000
0000
0000
3C3E
3C7C
3C78
3CF8
3DF0
3DE0
3FE0
3FE0
3FE0
3FF0
3EF0
3C78
3C78
3C3C
3C3C
3C3E
0000
0000
0000
0000
0000
0000
0000
ENDCHAR
STARTCHAR char76
ENCODING 76
SWIDTH 533 0
DWIDTH 16 0
BBX 16 29 0 -7
BITMAP
0000
0000
0000
0000
0000
0000
1E00
1E00
1E00
1E00
1E00
1E00
1E00
1E00
1E00
1E00
1E00
1E00
1E00
1FFC
1FFC
1FFC
0000
0000
0000
0000
0000
0000
0000
ENDCHAR
STARTCHAR char77
ENCODING 77
SWIDTH 533 0
DWIDTH 16 0
BBX 16 29 0 -7
BITMAP
0000
0000
0000
0000
0000
0000
7C7C
7C7C
7C7C
7C7C
7EFC
7EFC
76DC
76DC
77DC
73DC
739C
739C
701C
701C
701C
701C
0000
0000
0000
0000
0000
0000
0000
ENDCHAR
STARTCHAR char78
ENCODING 78
SWIDTH 533 0
DWIDTH 16 0
BBX 16 29 0 -7
BITMAP
0000
0000
0000
0000
0000
0000
3C38
3E38
3E38
3E38
3F38
3F38
3B38
3BB8
3BB8
39B8
39F8
39F8
38F8
38F8
38F8
3878
0000
0000
0000
0000
0000
0000
0000
ENDCHAR
STARTCHAR char79
ENCODING 79
SWIDTH 533 0
DWIDTH 16 0
BBX 16 29 0 -7
BITMAP
0000
0000
0000
0000
0000
0000
07C0
1FF0
3FF8
3C78
7C7C
783C
783C
783C
783C
783C
783C
7C7C
3C78
3FF8
1FF0
07C0
0000
0000
0000
0000
0000
0000
0000
ENDCHAR
STARTCHAR char80
ENCODING 80
SWIDTH 533 0
DWIDTH 16 0
BBX 16 29 0 -7
BITMAP
0000
0000
0000
0000
0000
0000
3FE0
3FF8
3FF8
3C7C
3C3C
3C3C
3C3C
3C7C
3FF8
3FF0
3FE0
3C00
3C00
3C00
3C00
3C00
0000
0000
0000
0000
0000
0000
0000
ENDCHAR
STARTCHAR char81
ENCODING 81
SWIDTH 533 0
DWIDTH 16 0
BBX 16 29 0 -7
BITMAP
0000
0000
0000
0000
0000
0000
07C0
1FF0
3FF8
3C78
7C7C
783C
783C
783C
783C
783C
783C
7C7C
3C78
3FF8
1FF0
0FE0
03C0
03E0
01FC
00FC
007C
0000
0000
ENDCHAR
STARTCHAR char82
ENCODING 82
SWIDTH 533 0
DWIDTH 16 0
BBX 16 29 0 -7
BITMAP
0000
0000
0000
0000
0000
0000
3FF0
3FFC
3FFC
3C3E
3C1E
3C1E
3C3E
3FFC
3FF8
3FF0
3CF8
3C78
3C3C
3C3E
3C1E
3C1F
0000
0000
0000
0000
0000
0000
0000
ENDCHAR
STARTCHAR char83
ENCODING 83
SWIDTH 533 0
DWIDTH 16 0
BBX 16 29 0 -7
BITMAP
0000
0000
0000
0000
0000
0000
0FE0
3FF8
3FFC
783E
781E
7C00
3F80
1FF0
07FC
007E
001E
F01E
F83E
7FFC
3FF8
0FE0
0000
0000
0000
0000
0000
0000
0000
ENDCHAR
STARTCHAR char84
ENCODING 84
SWIDTH 533 0
DWIDTH 16 0
BBX 16 29 0 -7
BITMAP
0000
0000
0000
0000
0000
0000
7FFE
7FFE
7FFE
03C0
03C0
03C0
03C0
03C0
03C0
03C0
03C0
03C0
03C0
03C0
03C0
03C0
0000
0000
0000
0000
0000
0000
0000
ENDCHAR
STARTCHAR char85
ENCODING 85
SWIDTH 533 0
DWIDTH 16 0
BBX 16 29 0 -7
BITMAP
0000
0000
0000
0000
0000
0000
3C3C
3C3C
3C3C
3C3C
3C3C
3C3C
3C3C
3C3C
3C3C
3C3C
3C3C
3C3C
3E7C
1FF8
1FF0
07E0
0000
0000
0000
0000
0000
0000
0000
ENDCHAR
STARTCHAR char86
ENCODING 86
SWIDTH 533 0
DWIDTH 16 0
BBX 16 29 0 -7
BITMAP
0000
0000
0000
0000
0000
0000
F01E
F83E
783C
783C
783C
3C78
3C78
3C78
1EF0
1EF0
1EF0
0EE0
0FE0
0FE0
07C0
07C0
0000
0000
0000
0000
0000
0000
0000
ENDCHAR
STARTCHAR char87
ENCODING 87
SWIDTH 533 0
DWIDTH 16 0
BBX 16 29 0 -7
BITMAP
0000
0000
0000
0000
0000
0000
E00E
E00E
E00E
701C
739C
739C
739C
77DC
76DC
36D8
36D8
3EF8
3C78
3C78
1C70
1830
0000
0000
0000
0000
0000
0000
0000
ENDCHAR
STARTCHAR char88
ENCODING 88
SWIDTH 533 0
DWIDTH 16 0
BBX 16 29 0 -7
BITMAP
0000
0000
0000
0000
0000
0000
7C3E
3C3C
3E78
1EF8
0FF0
0FE0
07E0
07C0
07C0
0FE0
0FF0
1EF0
3E78
3C78
7C3C
F83E
0000
0000
0000
0000
0000
0000
0000
ENDCHAR
STARTCHAR char89
ENCODING 89
SWIDTH 533 0
DWIDTH 16 0
BBX 16 29 0 -7
BITMAP
0000
0000
0000
0000
0000
0000
F00F
781E
3C3C
3C3C
1E78
0FF0
0FF0
07E0
03C0
03C0
03C0
03C0
03C0
03C0
03C0
03C0
0000
0000
0000
0000
0000
0000
0000
ENDCHAR
STARTCHAR char90
ENCODING 90
SWIDTH 533 0
DWIDTH 16 0
BBX 16 29 0 -7
BITMAP
0000
0000
0000
0000
0000
0000
3FFC
3FFC
3FFC
0078
00F8
01F0
03E0
07C0
0780
0F80
1F00
3E00
3C00
7FFC
7FFC
7FFC
0000
0000
0000
0000
0000
0000
0000
ENDCHAR
STARTCHAR char91
ENCODING 91
SWIDTH 533 0
DWIDTH 16 0
BBX 16 29 0 -7
BITMAP
0000
0000
0000
0000
07F0
07F0
0780
0780
0780
0780
0780
0780
0780
0780
0780
0780
0780
0780
0780
0780
0780
0780
0780
0780
0780
07F0
07F0
0000
0000
ENDCHAR
STARTCHAR char92
ENCODING 92
SWIDTH 533 0
DWIDTH 16 0
BBX 16 29 0 -7
BITMAP
0000
0000
0000
0000
7000
3800
3800
1C00
0C00
0E00
0600
0700
0380
0380
01C0
01C0
00E0
0060
0070
0038
0038
001C
0000
0000
0000
0000
0000
0000
0000
ENDCHAR
STARTCHAR char93
ENCODING 93
SWIDTH 533 0
DWIDTH 16 0
BBX 16 29 0 -7
BITMAP
0000
0000
0000
0000
1FC0
1FC0
03C0
03C0
03C0
03C0
03C0
03C0
03C0
03C0
03C0
03C0
03C0
03C0
03C0
03C0
03C0
03C0
03C0
03C0
03C0
1FC0
1FC0
0000
0000
ENDCHAR
STARTCHAR char94
ENCODING 94
SWIDTH 533 0
DWIDTH 16 0
BBX 16 29 0 -7
BITMAP
0000
0000
0000
0000
0000
0000
07C0
07C0
0EC0
0EE0
0C60
1C70
1C70
3838
3838
3018
701C
0000
0000
0000
0000
0000
0000
0000
0000
0000
0000
0000
0000
ENDCHAR
STARTCHAR char95
ENCODING 95
SWIDTH 533 0
DWIDTH 16 0
BBX 16 29 0 -7
BITMAP
0000
0000
0000
0000
0000
0000
0000
0000
0000
0000
0000
0000
0000
0000
0000
0000
0000
0000
0000
0000
0000
0000
0000
0000
FFFE
0000
0000
0000
0000
ENDCHAR
STARTCHAR char96
ENCODING 96
SWIDTH 533 0
DWIDTH 16 0
BBX 16 29 0 -7
BITMAP
0000
0000
0000
0E00
0700
0380
01C0
0000
0000
0000
0000
0000
0000
0000
0000
0000
0000
0000
0000
0000
0000
0000
0000
0000
0000
0000
0000
0000
0000
ENDCHAR
STARTCHAR char97
ENCODING 97
SWIDTH 533 0
DWIDTH 16 0
BBX 16 29 0 -7
BITMAP
0000
0000
0000
0000
0000
0000
0000
0000
07C0
1FF0
3CF0
3C78
0078
0078
1FF8
3FF8
7C78
7878
7878
78F8
3FBE
1E1E
0000
0000
0000
0000
0000
0000
0000
ENDCHAR
STARTCHAR char98
ENCODING 98
SWIDTH 533 0
DWIDTH 16 0
BBX 16 29 0 -7
BITMAP
0000
0000
0000
0000
3C00
3C00
3C00
3C00
3CF0
3FF8
3E78
3C3C
3C3C
3C3C
3C3C
3C3C
3C3C
3C3C
3C3C
3E78
3DF8
3CE0
0000
0000
0000
0000
0000
0000
0000
ENDCHAR
STARTCHAR char99
ENCODING 99
SWIDTH 533 0
DWIDTH 16 0
BBX 16 29 0 -7
BITMAP
0000
0000
0000
0000
0000
0000
0000
0000
07C0
1FF0
3C38
3C38
781C
7800
7800
7800
7800
781C
3C1C
3C38
1FF0
07C0
0000
0000
0000
0000
0000
0000
0000
ENDCHAR
STARTCHAR char100
ENCODING 100
SWIDTH 533 0
DWIDTH 16 0
BBX 16 29 0 -7
BITMAP
0000
0000
0000
0000
003C
003C
003C
003C
0F3C
1FBC
3C7C
7C7C
783C
783C
783C
783C
783C
783C
3C7C
3C7C
1FBC
0F3C
0000
0000
0000
0000
0000
0000
0000
ENDCHAR
STARTCHAR char101
ENCODING 101
SWIDTH 533 0
DWIDTH 16 0
BBX 16 29 0 -7
BITMAP
0000
0000
0000
0000
0000
0000
0000
0000
07C0
1FF0
3C78
3C78
783C
783C
7FFC
7FFC
7800
7800
3C1C
3C38
1FF0
07E0
0000
0000
0000
0000
0000
0000
0000
ENDCHAR
STARTCHAR char102
ENCODING 102
SWIDTH 533 0
DWIDTH 16 0
BBX 16 29 0 -7
BITMAP
0000
0000
0000
0000
01FC
03FC
0780
0780
3FFC
3FFC
0780
0780
0780
0780
0780
0780
0780
0780
0780
0780
0780
0780
0000
0000
0000
0000
0000
0000
0000
ENDCHAR
STARTCHAR char103
ENCODING 103
SWIDTH 533 0
DWIDTH 16 0
BBX 16 29 0 -7
BITMAP
0000
0000
0000
0000
0000
0000
0000
0000
073C
1FBC
1E7C
3C3C
3C3C
3C3C
3C3C
3C3C
3C3C
3C3C
3C3C
1E7C
1FBC
0F3C
003C
1E3C
1E78
0FF8
03E0
0000
0000
ENDCHAR
STARTCHAR char104
ENCODING 104
SWIDTH 533 0
DWIDTH 16 0
BBX 16 29 0 -7
BITMAP
0000
0000
0000
0000
3C00
3C00
3C00
3C00
3CF0
3DF8
3FFC
3E7C
3C3C
3C3C
3C3C
3C3C
3C3C
3C3C
3C3C
3C3C
3C3C
3C3C
0000
0000
0000
0000
0000
0000
0000
ENDCHAR
STARTCHAR char105
ENCODING 105
SWIDTH 533 0
DWIDTH 16 0
BBX 16 29 0 -7
BITMAP
0000
0000
0000
0000
03C0
03C0
03C0
0000
3FC0
3FC0
03C0
03C0
03C0
03C0
03C0
03C0
03C0
03C0
03C0
03C0
7FFC
7FFC
0000
0000
0000
0000
0000
0000
0000
ENDCHAR
STARTCHAR char106
ENCODING 106
SWIDTH 533 0
DWIDTH 16 0
BBX 16 29 0 -7
BITMAP
0000
0000
0000
0000
01E0
01E0
01E0
0000
3FE0
3FE0
01E0
01E0
01E0
01E0
01E0
01E0
01E0
01E0
01E0
01E0
01E0
01E0
01E0
03E0
7FC0
7F80
7F00
0000
0000
ENDCHAR
STARTCHAR char107
ENCODING 107
SWIDTH 533 0
DWIDTH 16 0
BBX 16 29 0 -7
BITMAP
0000
0000
0000
0000
3C00
3C00
3C00
3C00
3C1C
3C38
3C70
3CE0
3DC0
3F80
3FC0
3FC0
3DE0
3DE0
3CF0
3CF8
3C78
3C7C
0000
0000
0000
0000
0000
0000
0000
ENDCHAR
STARTCHAR char108
ENCODING 108
SWIDTH 533 0
DWIDTH 16 0
BBX 16 29 0 -7
BITMAP
0000
0000
0000
0000
3FC0
3FC0
03C0
03C0
03C0
03C0
03C0
03C0
03C0
03C0
03C0
03C0
03C0
03C0
03C0
03C0
7FFC
7FFC
0000
0000
0000
0000
0000
0000
0000
ENDCHAR
STARTCHAR char109
ENCODING 109
SWIDTH 533 0
DWIDTH 16 0
BBX 16 29 0 -7
BITMAP
0000
0000
0000
0000
0000
0000
0000
0000
7738
7F7C
7BDC
739C
739C
739C
739C
739C
739C
739C
739C
739C
739C
739C
0000
0000
0000
0000
0000
0000
0000
ENDCHAR
STARTCHAR char110
ENCODING 110
SWIDTH 533 0
DWIDTH 16 0
BBX 16 29 0 -7
BITMAP
0000
0000
0000
0000
0000
0000
0000
0000
3CF0
3DF8
3FFC
3E7C
3C3C
3C3C
3C3C
3C3C
3C3C
3C3C
3C3C
3C3C
3C3C
3C3C
0000
0000
0000
0000
0000
0000
0000
ENDCHAR
STARTCHAR char111
ENCODING 111
SWIDTH 533 0
DWIDTH 16 0
BBX 16 29 0 -7
BITMAP
0000
0000
0000
0000
0000
0000
0000
0000
07C0
1FF0
3C78
3838
783C
783C
783C
783C
783C
783C
3838
3C78
1FF0
07C0
0000
0000
0000
0000
0000
0000
0000
ENDCHAR
STARTCHAR char112
ENCODING 112
SWIDTH 533 0
DWIDTH 16 0
BBX 16 29 0 -7
BITMAP
0000
0000
0000
0000
0000
0000
0000
0000
3CE0
3FF8
3E78
3C3C
3C3C
3C3C
3C3C
3C3C
3C3C
3C3C
3C3C
3E78
3FF8
3DE0
3C00
3C00
3C00
3C00
3C00
0000
0000
ENDCHAR
STARTCHAR char113
ENCODING 113
SWIDTH 533 0
DWIDTH 16 0
BBX 16 29 0 -7
BITMAP
0000
0000
0000
0000
0000
0000
0000
0000
0F3C
1FBC
3C7C
3C7C
783C
783C
783C
783C
783C
783C
7C7C
3C7C
1FBC
0F3C
003C
003C
003C
003C
003C
0000
0000
ENDCHAR
STARTCHAR char114
ENCODING 114
SWIDTH 533 0
DWIDTH 16 0
BBX 16 29 0 -7
BITMAP
0000
0000
0000
0000
0000
0000
0000
0000
3C78
3EF8
1FF8
1F80
1F00
1F00
1E00
1E00
1E00
1E00
1E00
1E00
1E00
1E00
0000
0000
0000
0000
0000
0000
0000
ENDCHAR
STARTCHAR char115
ENCODING 115
SWIDTH 533 0
DWIDTH 16 0
BBX 16 29 0 -7
BITMAP
0000
0000
0000
0000
0000
0000
0000
0000
07E0
1FF8
3E3C
3C1C
3C00
3F80
1FF0
0FF8
00FC
003C
703C
787C
3FF8
0FE0
0000
0000
0000
0000
0000
0000
0000
ENDCHAR
STARTCHAR char116
ENCODING 116
SWIDTH 533 0
DWIDTH 16 0
BBX 16 29 0 -7
BITMAP
0000
0000
0000
0000
0000
0700
0700
0F00
3FF0
3FF0
0F00
0F00
0F00
0F00
0F00
0F00
0F00
0F00
0F00
0F00
07F8
03F8
0000
0000
0000
0000
0000
0000
0000
ENDCHAR
STARTCHAR char117
ENCODING 117
SWIDTH 533 0
DWIDTH 16 0
BBX 16 29 0 -7
BITMAP
0000
0000
0000
0000
0000
0000
0000
0000
3C3C
3C3C
3C3C
3C3C
3C3C
3C3C
3C3C
3C3C
3C3C
3C3C
3E7C
3FFC
1FBC
0F3C
0000
0000
0000
0000
0000
0000
0000
ENDCHAR
STARTCHAR char118
ENCODING 118
SWIDTH 533 0
DWIDTH 16 0
BBX 16 29 0 -7
BITMAP
0000
0000
0000
0000
0000
0000
0000
0000
F01E
783C
783C
783C
3C78
3C78
3C78
1CF0
1EF0
1EF0
0EE0
0FE0
0FE0
07C0
0000
0000
0000
0000
0000
0000
0000
ENDCHAR
STARTCHAR char119
ENCODING 119
SWIDTH 533 0
DWIDTH 16 0
BBX 16 29 0 -7
BITMAP
0000
0000
0000
0000
0000
0000
0000
0000
E00E
E00E
E00E
638C
638C
739C
77DC
76DC
76DC
3EF8
3C78
3C78
3C78
3878
0000
0000
0000
0000
0000
0000
0000
ENDCHAR
STARTCHAR char120
ENCODING 120
SWIDTH 533 0
DWIDTH 16 0
BBX 16 29 0 -7
BITMAP
0000
0000
0000
0000
0000
0000
0000
0000
783C
3C78
1C70
1EF0
0EE0
07C0
0780
07C0
07C0
0EE0
1EF0
1C70
3C78
783C
0000
0000
0000
0000
0000
0000
0000
ENDCHAR
STARTCHAR char121
ENCODING 121
SWIDTH 533 0
DWIDTH 16 0
BBX 16 29 0 -7
BITMAP
0000
0000
0000
0000
0000
0000
0000
0000
F01E
783C
783C
783C
3C78
3C78
3C78
1E70
1EF0
0EF0
0EE0
0FE0
07E0
07C0
07C0
0F80
3F80
3F00
3E00
0000
0000
ENDCHAR
STARTCHAR char122
ENCODING 122
SWIDTH 533 0
DWIDTH 16 0
BBX 16 29 0 -7
BITMAP
0000
0000
0000
0000
0000
0000
0000
0000
1FF8
1FF8
1FF8
0078
00F0
01E0
03C0
0780
0F00
1E00
3C00
3FFC
3FFC
3FFC
0000
0000
0000
0000
0000
0000
0000
ENDCHAR
STARTCHAR char123
ENCODING 123
SWIDTH 533 0
DWIDTH 16 0
BBX 16 29 0 -7
BITMAP
0000
0000
0000
0000
01F8
07F8
07C0
0780
0780
0780
0780
0780
0780
0F80
3E00
3E00
0F00
0780
0780
0780
0780
0780
0780
0780
07C0
03F8
01F8
0000
0000
ENDCHAR
STARTCHAR char124
ENCODING 124
SWIDTH 533 0
DWIDTH 16 0
BBX 16 29 0 -7
BITMAP
0000
0000
0000
0000
0380
0380
0380
0380
0380
0380
0380
0380
0380
0380
0380
0380
0380
0380
0380
0380
0380
0380
0380
0380
0380
0380
0380
0380
0000
ENDCHAR
STARTCHAR char125
ENCODING 125
SWIDTH 533 0
DWIDTH 16 0
BBX 16 29 0 -7
BITMAP
0000
0000
0000
0000
3F00
3F80
07C0
03C0
03C0
03C0
03C0
03C0
03C0
03E0
00F8
00F8
01E0
03C0
03C0
03C0
03C0
03C0
03C0
03C0
07C0
3F80
3F00
0000
0000
ENDCHAR
STARTCHAR char126
ENCODING 126
SWIDTH 533 0
DWIDTH 16 0
BBX 16 29 0 -7
BITMAP
0000
0000
0000
0000
0000
0000
0000
0000
0000
0000
0000
3E00
7F84
7FFC
43FC
0078
0000
0000
0000
0000
0000
0000
0000
0000
0000
0000
0000
0000
0000
ENDCHAR
STARTCHAR char127
ENCODING 127
SWIDTH 533 0
DWIDTH 16 0
BBX 16 29 0 -7
BITMAP
0000
0000
0000
0000
0000
0000
0000
0000
0000
0100
0280
0440
0820
1010
2008
2008
2008
2008
2008
2008
2008
3FF8
0000
0000
0000
0000
0000
0000
0000
ENDCHAR
STARTCHAR char128
ENCODING 128
SWIDTH 533 0
DWIDTH 16 0
BBX 16 29 0 -7
BITMAP
0000
0000
0000
0000
0000
0000
3FFC
3FFC
3FFC
3C00
3C00
3C00
3FF0
3FFC
3FFC
3C3E
3C1E
3C1E
3C3E
3FFC
3FF8
3FF0
0000
0000
0000
0000
0000
0000
0000
ENDCHAR
STARTCHAR char129
ENCODING 129
SWIDTH 533 0
DWIDTH 16 0
BBX 16 29 0 -7
BITMAP
0000
0000
0000
0000
0000
0000
3FFC
3FFC
3FFC
3C00
3C00
3C00
3C00
3C00
3C00
3C00
3C00
3C00
3C00
3C00
3C00
3C00
0000
0000
0000
0000
0000
0000
0000
ENDCHAR
STARTCHAR char130
ENCODING 130
SWIDTH 533 0
DWIDTH 16 0
BBX 16 29 0 -7
BITMAP
0000
0000
0000
0000
0000
0000
07F0
07F0
07F0
0770
0F70
0F70
0F70
0E70
0E70
0E70
1E70
1C70
3870
FFFC
FFFC
FFFC
E01C
E01C
E01C
E01C
E01C
0000
0000
ENDCHAR
STARTCHAR char131
ENCODING 131
SWIDTH 533 0
DWIDTH 16 0
BBX 16 29 0 -7
BITMAP
0000
0000
0000
0000
0000
0000
E38E
E38E
739C
739C
739C
3BB8
3BB8
3FF8
1FF0
3FF8
3BB8
3398
739C
739C
739C
E38E
0000
0000
0000
0000
0000
0000
0000
ENDCHAR
STARTCHAR char132
ENCODING 132
SWIDTH 533 0
DWIDTH 16 0
BBX 16 29 0 -7
BITMAP
0000
0000
0000
0000
0000
0000
07E0
1FF8
3FFC
787C
303C
007C
03F8
03E0
03F8
007C
103C
783C
3C7C
3FF8
1FF0
07E0
0000
0000
0000
0000
0000
0000
0000
ENDCHAR
STARTCHAR char133
ENCODING 133
SWIDTH 533 0
DWIDTH 16 0
BBX 16 29 0 -7
BITMAP
0000
0000
0000
0000
0000
0000
3C3C
3C7C
3C7C
3CFC
3CFC
3DFC
3DFC
3DBC
3DBC
3FBC
3FBC
3F3C
3F3C
3E3C
3E3C
3C3C
0000
0000
0000
0000
0000
0000
0000
ENDCHAR
STARTCHAR char134
ENCODING 134
SWIDTH 533 0
DWIDTH 16 0
BBX 16 29 0 -7
BITMAP
1C38
1C38
0FF0
07E0
0000
0000
3C3C
3C7C
3C7C
3CFC
3CFC
3DFC
3DFC
3DBC
3DBC
3FBC
3FBC
3F3C
3F3C
3E3C
3E3C
3C3C
0000
0000
0000
0000
0000
0000
0000
ENDCHAR
STARTCHAR char135
ENCODING 135
SWIDTH 533 0
DWIDTH 16 0
BBX 16 29 0 -7
BITMAP
0000
0000
0000
0000
0000
0000
0FFC
0FFC
0FFC
0E3C
1E3C
1E3C
1E3C
1C3C
1C3C
1C3C
3C3C
3C3C
383C
F83C
F03C
E03C
0000
0000
0000
0000
0000
0000
0000
ENDCHAR
STARTCHAR char136
ENCODING 136
SWIDTH 533 0
DWIDTH 16 0
BBX 16 29 0 -7
BITMAP
0000
0000
0000
0000
0000
0000
3FFC
3FFC
3FFC
3C3C
3C3C
3C3C
3C3C
3C3C
3C3C
3C3C
3C3C
3C3C
3C3C
3C3C
3C3C
3C3C
0000
0000
0000
0000
0000
0000
0000
ENDCHAR
STARTCHAR char137
ENCODING 137
SWIDTH 533 0
DWIDTH 16 0
BBX 16 29 0 -7
BITMAP
0000
0000
0000
0000
0000
0000
F01E
781C
383C
3C38
1E78
0E70
0FF0
07E0
03E0
03C0
03C0
0380
0780
3F00
7F00
7C00
0000
0000
0000
0000
0000
0000
0000
ENDCHAR
STARTCHAR char138
ENCODING 138
SWIDTH 533 0
DWIDTH 16 0
BBX 16 29 0 -7
BITMAP
0000
0000
0000
0000
0000
0000
0380
1FF0
3FF8
7FFC
F39E
E38E
E38E
E38E
E38E
E38E
739C
7FFC
3FF8
1FF0
0380
0380
0000
0000
0000
0000
0000
0000
0000
ENDCHAR
STARTCHAR char139
ENCODING 139
SWIDTH 533 0
DWIDTH 16 0
BBX 16 29 0 -7
BITMAP
0000
0000
0000
0000
0000
0000
3C78
3C78
3C78
3C78
3C78
3C78
3C78
3C78
3C78
3C78
3C78
3C78
3C78
3FFE
3FFE
3FFE
000E
000E
000E
000E
000E
0000
0000
ENDCHAR
STARTCHAR char140
ENCODING 140
SWIDTH 533 0
DWIDTH 16 0
BBX 16 29 0 -7
BITMAP
0000
0000
0000
0000
0000
0000
3C78
3C78
3C78
3C78
3C78
3C78
3C78
3C78
3FF8
1FF8
0F78
0078
0078
0078
0078
0078
0000
0000
0000
0000
0000
0000
0000
ENDCHAR
STARTCHAR char141
ENCODING 141
SWIDTH 533 0
DWIDTH 16 0
BBX 16 29 0 -7
BITMAP
0000
0000
0000
0000
0000
0000
701C
701C
739C
739C
739C
739C
739C
739C
739C
739C
739C
739C
739C
7FFC
7FFC
7FFC
0000
0000
0000
0000
0000
0000
0000
ENDCHAR
STARTCHAR char142
ENCODING 142
SWIDTH 533 0
DWIDTH 16 0
BBX 16 29 0 -7
BITMAP
0000
0000
0000
0000
0000
0000
701C
701C
739C
739C
739C
739C
739C
739C
739C
739C
739C
739C
739C
7FFE
7FFE
7FFE
000E
000E
000E
000E
000E
0000
0000
ENDCHAR
STARTCHAR char143
ENCODING 143
SWIDTH 533 0
DWIDTH 16 0
BBX 16 29 0 -7
BITMAP
0000
0000
0000
0000
0000
0000
FE00
FE00
FE00
1E00
1E00
1E00
1FE0
1FF8
1FF8
1E7C
1E3C
1E3C
1E7C
1FF8
1FF0
1FE0
0000
0000
0000
0000
0000
0000
0000
ENDCHAR
STARTCHAR char144
ENCODING 144
SWIDTH 533 0
DWIDTH 16 0
BBX 16 29 0 -7
BITMAP
0000
0000
0000
0000
0000
0000
701C
701C
701C
701C
701C
701C
7E1C
7F9C
7F9C
73DC
71DC
71DC
73DC
7F9C
7F9C
7E1C
0000
0000
0000
0000
0000
0000
0000
ENDCHAR
STARTCHAR char145
ENCODING 145
SWIDTH 533 0
DWIDTH 16 0
BBX 16 29 0 -7
BITMAP
0000
0000
0000
0000
0000
0000
3C00
3C00
3C00
3C00
3C00
3C00
3FE0
3FF8
3FF8
3C7C
3C3C
3C3C
3C7C
3FF8
3FF0
3FE0
0000
0000
0000
0000
0000
0000
0000
ENDCHAR
STARTCHAR char146
ENCODING 146
SWIDTH 533 0
DWIDTH 16 0
BBX 16 29 0 -7
BITMAP
0000
0000
0000
0000
0000
0000
07C0
1FF0
3FF8
3C78
783C
183C
03FC
03FC
03FC
003C
383C
787C
3C78
3FF8
1FF0
07C0
0000
0000
0000
0000
0000
0000
0000
ENDCHAR
STARTCHAR char147
ENCODING 147
SWIDTH 533 0
DWIDTH 16 0
BBX 16 29 0 -7
BITMAP
0000
0000
0000
0000
0000
0000
71E0
73F0
73F8
77B8
771C
771C
7F1C
7F1C
7F1C
771C
771C
771C
73B8
73F8
71F0
70E0
0000
0000
0000
0000
0000
0000
0000
ENDCHAR
STARTCHAR char148
ENCODING 148
SWIDTH 533 0
DWIDTH 16 0
BBX 16 29 0 -7
BITMAP
0000
0000
0000
0000
0000
0000
0FFC
3FFC
3FFC
7C3C
783C
783C
7C3C
3FFC
1FFC
0FFC
1F3C
1E3C
3C3C
7C3C
783C
F83C
0000
0000
0000
0000
0000
0000
0000
ENDCHAR
STARTCHAR char149
ENCODING 149
SWIDTH 533 0
DWIDTH 16 0
BBX 16 29 0 -7
BITMAP
0000
0000
0000
0000
0078
07F8
0FF8
1F80
3C00
3000
73E0
67F8
6C78
783C
783C
783C
783C
783C
383C
3C78
1FF0
07E0
0000
0000
0000
0000
0000
0000
0000
ENDCHAR
STARTCHAR char150
ENCODING 150
SWIDTH 533 0
DWIDTH 16 0
BBX 16 29 0 -7
BITMAP
0000
0000
0000
0000
0000
0000
0000
0000
3FF0
3FF8
3C3C
3C3C
3C3C
3C38
3FF0
3FF8
3C3C
3C3C
3C3C
3C3C
3FF8
3FF0
0000
0000
0000
0000
0000
0000
0000
ENDCHAR
STARTCHAR char151
ENCODING 151
SWIDTH 533 0
DWIDTH 16 0
BBX 16 29 0 -7
BITMAP
0000
0000
0000
0000
0000
0000
0000
0000
1FF8
1FF8
1E00
1E00
1E00
1E00
1E00
1E00
1E00
1E00
1E00
1E00
1E00
1E00
0000
0000
0000
0000
0000
0000
0000
ENDCHAR
STARTCHAR char152
ENCODING 152
SWIDTH 533 0
DWIDTH 16 0
BBX 16 29 0 -7
BITMAP
0000
0000
0000
0000
0000
0000
0000
0000
1FF8
1FF8
1C78
1C78
1C78
3C78
3C78
3C78
3C78
3878
7878
7878
FFFE
FFFE
E00E
E00E
E00E
E00E
E00E
0000
0000
ENDCHAR
STARTCHAR char153
ENCODING 153
SWIDTH 533 0
DWIDTH 16 0
BBX 16 29 0 -7
BITMAP
0000
0000
0000
0000
0000
0000
0000
0000
E38E
638C
739C
739C
33B8
3BB8
1FF0
3FF8
3BB8
3398
739C
739C
738C
E38E
0000
0000
0000
0000
0000
0000
0000
ENDCHAR
STARTCHAR char154
ENCODING 154
SWIDTH 533 0
DWIDTH 16 0
BBX 16 29 0 -7
BITMAP
0000
0000
0000
0000
0000
0000
0000
0000
0FE0
3FF8
787C
703C
003C
0078
03F0
03F0
007C
003C
703C
787C
3FF8
0FE0
0000
0000
0000
0000
0000
0000
0000
ENDCHAR
STARTCHAR char155
ENCODING 155
SWIDTH 533 0
DWIDTH 16 0
BBX 16 29 0 -7
BITMAP
0000
0000
0000
0000
0000
0000
0000
0000
3C7C
3C7C
3C7C
3CFC
3CFC
3DFC
3DBC
3DBC
3FBC
3F3C
3F3C
3E3C
3E3C
3E3C
0000
0000
0000
0000
0000
0000
0000
ENDCHAR
STARTCHAR char156
ENCODING 156
SWIDTH 533 0
DWIDTH 16 0
BBX 16 29 0 -7
BITMAP
0000
0000
0000
1C38
1C38
0FF0
07E0
0000
3C7C
3C7C
3C7C
3CFC
3CFC
3DFC
3DBC
3DBC
3FBC
3F3C
3F3C
3E3C
3E3C
3E3C
0000
0000
0000
0000
0000
0000
0000
ENDCHAR
STARTCHAR char157
ENCODING 157
SWIDTH 533 0
DWIDTH 16 0
BBX 16 29 0 -7
BITMAP
0000
0000
0000
0000
0000
0000
0000
0000
3C3C
3C38
3C78
3C70
3CF0
3CE0
3FC0
3FC0
3CE0
3CF0
3C70
3C78
3C38
3C3C
0000
0000
0000
0000
0000
0000
0000
ENDCHAR
STARTCHAR char158
ENCODING 158
SWIDTH 533 0
DWIDTH 16 0
BBX 16 29 0 -7
BITMAP
0000
0000
0000
0000
0000
0000
0000
0000
0FFC
0FFC
0E3C
0E3C
1E3C
1E3C
1C3C
1C3C
1C3C
1C3C
3C3C
383C
F83C
F03C
0000
0000
0000
0000
0000
0000
0000
ENDCHAR
STARTCHAR char159
ENCODING 159
SWIDTH 533 0
DWIDTH 16 0
BBX 16 29 0 -7
BITMAP
0000
0000
0000
0000
0000
0000
0000
0000
7C7C
7C7C
7C7C
7C7C
7C7C
76FC
76DC
76DC
76DC
76DC
729C
739C
739C
739C
0000
0000
0000
0000
0000
0000
0000
ENDCHAR
STARTCHAR char160
ENCODING 160
SWIDTH 533 0
DWIDTH 16 0
BBX 16 29 0 -7
BITMAP
0000
0000
0000
0000
0000
0000
0000
0000
3C3C
3C3C
3C3C
3C3C
3C3C
3C3C
3FFC
3FFC
3C3C
3C3C
3C3C
3C3C
3C3C
3C3C
0000
0000
0000
0000
0000
0000
0000
ENDCHAR
STARTCHAR char161
ENCODING 161
SWIDTH 533 0
DWIDTH 16 0
BBX 16 29 0 -7
BITMAP
0000
0000
0000
0000
0000
0000
0000
0000
3FFC
3FFC
3C3C
3C3C
3C3C
3C3C
3C3C
3C3C
3C3C
3C3C
3C3C
3C3C
3C3C
3C3C
0000
0000
0000
0000
0000
0000
0000
ENDCHAR
STARTCHAR char162
ENCODING 162
SWIDTH 533 0
DWIDTH 16 0
BBX 16 29 0 -7
BITMAP
0000
0000
0000
0000
0000
0000
0000
0000
3FFC
3FFC
03C0
03C0
03C0
03C0
03C0
03C0
03C0
03C0
03C0
03C0
03C0
03C0
0000
0000
0000
0000
0000
0000
0000
ENDCHAR
STARTCHAR char163
ENCODING 163
SWIDTH 533 0
DWIDTH 16 0
BBX 16 29 0 -7
BITMAP
0000
0000
0000
0000
0380
0380
0380
0380
0FE0
1FF0
3BB8
3BB8
739C
739C
739C
739C
739C
739C
3BB8
3BB8
1FF0
0FE0
0380
0380
0380
0380
0380
0000
0000
ENDCHAR
STARTCHAR char164
ENCODING 164
SWIDTH 533 0
DWIDTH 16 0
BBX 16 29 0 -7
BITMAP
0000
0000
0000
0000
0000
0000
0000
0000
3C3C
3C3C
3C3C
3C3C
3C3C
3C3C
3C3C
3C3C
3C3C
3C3C
3C3C
3C3C
3FFE
3FFE
000E
000E
000E
000E
000E
0000
0000
ENDCHAR
STARTCHAR char165
ENCODING 165
SWIDTH 533 0
DWIDTH 16 0
BBX 16 29 0 -7
BITMAP
0000
0000
0000
0000
0000
0000
0000
0000
3C3C
3C3C
3C3C
3C3C
3C3C
3C3C
3C3C
3FFC
1FFC
0F3C
003C
003C
003C
003C
0000
0000
0000
0000
0000
0000
0000
ENDCHAR
STARTCHAR char166
ENCODING 166
SWIDTH 533 0
DWIDTH 16 0
BBX 16 29 0 -7
BITMAP
0000
0000
0000
0000
0000
0000
0000
0000
739C
739C
739C
739C
739C
739C
739C
739C
739C
739C
739C
739C
7FFC
7FFC
0000
0000
0000
0000
0000
0000
0000
ENDCHAR
STARTCHAR char167
ENCODING 167
SWIDTH 533 0
DWIDTH 16 0
BBX 16 29 0 -7
BITMAP
0000
0000
0000
0000
0000
0000
0000
0000
739C
739C
739C
739C
739C
739C
739C
739C
739C
739C
739C
739C
7FFE
7FFE
000E
000E
000E
000E
000E
0000
0000
ENDCHAR
STARTCHAR char168
ENCODING 168
SWIDTH 533 0
DWIDTH 16 0
BBX 16 29 0 -7
BITMAP
0000
0000
0000
0000
0000
0000
0000
0000
FE00
FE00
1E00
1E00
1E00
1E00
1FF8
1FFC
1E3E
1E1E
1E1E
1E3E
1FFC
1FF0
0000
0000
0000
0000
0000
0000
0000
ENDCHAR
STARTCHAR char169
ENCODING 169
SWIDTH 533 0
DWIDTH 16 0
BBX 16 29 0 -7
BITMAP
0000
0000
0000
0000
0000
0000
0000
0000
701E
701E
701E
701E
701E
701E
7F1E
7F9E
71DE
71DE
71DE
71DE
7F9E
7F1E
0000
0000
0000
0000
0000
0000
0000
ENDCHAR
STARTCHAR char170
ENCODING 170
SWIDTH 533 0
DWIDTH 16 0
BBX 16 29 0 -7
BITMAP
0000
0000
0000
0000
0000
0000
0000
0000
3C00
3C00
3C00
3C00
3C00
3C00
3FF0
3FF8
3C3C
3C3C
3C3C
3C7C
3FF8
3FE0
0000
0000
0000
0000
0000
0000
0000
ENDCHAR
STARTCHAR char171
ENCODING 171
SWIDTH 533 0
DWIDTH 16 0
BBX 16 29 0 -7
BITMAP
0000
0000
0000
0000
0000
0000
0000
0000
0FC0
1FF0
3C78
7838
783C
003C
03FC
03FC
003C
703C
7838
3C78
1FF0
07C0
0000
0000
0000
0000
0000
0000
0000
ENDCHAR
STARTCHAR char172
ENCODING 172
SWIDTH 533 0
DWIDTH 16 0
BBX 16 29 0 -7
BITMAP
0000
0000
0000
0000
0000
0000
0000
0000
7070
71FC
71DC
738E
738E
738E
7F8E
7F8E
738E
738E
738E
71DC
71FC
7070
0000
0000
0000
0000
0000
0000
0000
ENDCHAR
STARTCHAR char173
ENCODING 173
SWIDTH 533 0
DWIDTH 16 0
BBX 16 29 0 -7
BITMAP
0000
0000
0000
0000
0000
0000
0000
0000
0FFC
3FFC
7C3C
783C
783C
7C3C
3FFC
0FFC
0E3C
1C3C
3C3C
383C
703C
F03C
0000
0000
0000
0000
0000
0000
0000
ENDCHAR
STARTCHAR char174
ENCODING 174
SWIDTH 533 0
DWIDTH 16 0
BBX 16 29 0 -7
BITMAP
0000
0E70
0E70
0E70
0000
0000
3FFC
3FFC
3FFC
3C00
3C00
3C00
3FF8
3FF8
3FF8
3C00
3C00
3C00
3C00
3FFC
3FFC
3FFC
0000
0000
0000
0000
0000
0000
0000
ENDCHAR
STARTCHAR char175
ENCODING 175
SWIDTH 533 0
DWIDTH 16 0
BBX 16 29 0 -7
BITMAP
0000
0000
0000
0000
0E70
0E70
0E70
0000
07C0
1FF0
3C78
3C78
783C
783C
7FFC
7FFC
7800
7800
3C1C
3C38
1FF0
07E0
0000
0000
0000
0000
0000
0000
0000
ENDCHAR
STARTCHAR char176
ENCODING 176
SWIDTH 533 0
DWIDTH 16 0
BBX 16 29 0 -7
BITMAP
0000
0000
0000
0000
03C0
0FF0
0E78
1C38
1C38
1C38
1C38
0E70
0FF0
03C0
0000
0000
0000
0000
0000
0000
0000
0000
0000
0000
0000
0000
0000
0000
0000
ENDCHAR
STARTCHAR char177
ENCODING 177
SWIDTH 533 0
DWIDTH 16 0
BBX 16 29 0 -7
BITMAP
0000
0000
0000
0000
0380
0780
1F80
1B80
0380
0380
0380
0380
1FF0
1FF0
0000
0000
0000
0000
0000
0000
0000
0000
0000
0000
0000
0000
0000
0000
0000
ENDCHAR
STARTCHAR char178
ENCODING 178
SWIDTH 533 0
DWIDTH 16 0
BBX 16 29 0 -7
BITMAP
0000
0000
0000
0000
07C0
0FF0
1C70
0070
00E0
03C0
0700
0C00
1FF0
1FF0
0000
0000
0000
0000
0000
0000
0000
0000
0000
0000
0000
0000
0000
0000
0000
ENDCHAR
STARTCHAR char179
ENCODING 179
SWIDTH 533 0
DWIDTH 16 0
BBX 16 29 0 -7
BITMAP
0000
0000
0000
0000
07C0
0FF0
1C70
0070
03E0
03E0
0070
1C70
1FF0
07C0
0000
0000
0000
0000
0000
0000
0000
0000
0000
0000
0000
0000
0000
0000
0000
ENDCHAR
STARTCHAR char180
ENCODING 180
SWIDTH 533 0
DWIDTH 16 0
BBX 16 29 0 -7
BITMAP
0000
0000
0000
0000
0000
0000
3018
F030
F030
3060
3060
30C0
3180
31B8
3338
0378
06D8
0D98
0DFC
19FC
1818
3018
0000
0000
0000
0000
0000
0000
0000
ENDCHAR
STARTCHAR char181
ENCODING 181
SWIDTH 533 0
DWIDTH 16 0
BBX 16 29 0 -7
BITMAP
0000
0000
0000
0000
0000
0000
3018
F030
F030
3060
3060
30C0
3180
31F8
33FC
03CC
060C
0C18
0C70
18C0
18FC
30FC
0000
0000
0000
0000
0000
0000
0000
ENDCHAR
STARTCHAR char182
ENCODING 182
SWIDTH 533 0
DWIDTH 16 0
BBX 16 29 0 -7
BITMAP
0000
0000
0000
0000
0000
0000
7C0C
FE18
C618
1C30
1C30
0660
C6C0
FEDC
7D9C
01BC
036C
06CC
06FE
0CFE
0C0C
180C
0000
0000
0000
0000
0000
0000
0000
ENDCHAR
STARTCHAR char183
ENCODING 183
SWIDTH 533 0
DWIDTH 16 0
BBX 16 29 0 -7
BITMAP
0000
0000
0000
0000
0000
0000
0000
0380
0380
0380
0380
7FFC
7FFC
7FFC
0380
0380
0380
0380
0000
7FFC
7FFC
7FFC
0000
0000
0000
0000
0000
0000
0000
ENDCHAR
STARTCHAR char184
ENCODING 184
SWIDTH 533 0
DWIDTH 16 0
BBX 16 29 0 -7
BITMAP
0000
0000
0000
0000
0000
0000
0000
0000
3018
3838
1C70
0EE0
07C0
0380
07C0
0EE0
1C70
3838
3018
0000
0000
0000
0000
0000
0000
0000
0000
0000
0000
ENDCHAR
STARTCHAR char185
ENCODING 185
SWIDTH 533 0
DWIDTH 16 0
BBX 16 29 0 -7
BITMAP
0000
0000
0000
0000
0000
0000
0000
0000
0000
0000
0000
071C
0E38
1C70
3CF0
38E0
3CF0
1C70
0E38
071C
0000
0000
0000
0000
0000
0000
0000
0000
0000
ENDCHAR
STARTCHAR char186
ENCODING 186
SWIDTH 533 0
DWIDTH 16 0
BBX 16 29 0 -7
BITMAP
0000
0000
0000
0000
0000
0000
0000
0000
0000
0000
0000
71C0
38E0
1C70
1E78
0E38
1E78
1C70
38E0
71C0
0000
0000
0000
0000
0000
0000
0000
0000
0000
ENDCHAR
STARTCHAR char187
ENCODING 187
SWIDTH 533 0
DWIDTH 16 0
BBX 16 29 0 -7
BITMAP
0000
0000
0000
0000
0000
0000
0000
0380
0380
0380
0000
0000
7FFC
7FFC
7FFC
0000
0000
0380
0380
0380
0000
0000
0000
0000
0000
0000
0000
0000
0000
ENDCHAR
STARTCHAR char188
ENCODING 188
SWIDTH 533 0
DWIDTH 16 0
BBX 16 29 0 -7
BITMAP
0000
0000
0000
0000
0000
0000
0000
0000
3E00
7F84
7FFC
43FC
00F8
0000
3E00
7F84
7FFC
43FC
0078
0000
0000
0000
0000
0000
0000
0000
0000
0000
0000
ENDCHAR
STARTCHAR char189
ENCODING 189
SWIDTH 533 0
DWIDTH 16 0
BBX 16 29 0 -7
BITMAP
0000
0000
0000
0000
0000
03C0
07E0
0E70
0C30
0C30
0E70
07E0
03C0
0000
0000
0000
0000
0000
0000
0000
0000
0000
0000
0000
0000
0000
0000
0000
0000
ENDCHAR
STARTCHAR char190
ENCODING 190
SWIDTH 533 0
DWIDTH 16 0
BBX 16 29 0 -7
BITMAP
0000
0000
0000
0000
0000
0000
E300
E300
E300
F33C
F33C
F366
FB66
DB66
DB66
DF66
CF7E
CF3C
CF00
C700
C77E
C77E
0000
0000
0000
0000
0000
0000
0000
ENDCHAR
STARTCHAR char191
ENCODING 191
SWIDTH 533 0
DWIDTH 16 0
BBX 16 29 0 -7
BITMAP
0000
0000
0000
0000
07C0
1FF0
3838
701C
678C
EFCE
DCE6
D806
D806
D806
D806
DC66
EFCE
678C
701C
3838
1FF0
07C0
0000
0000
0000
0000
0000
0000
0000
ENDCHAR
STARTCHAR char192
ENCODING 192
SWIDTH 533 0
DWIDTH 16 0
BBX 16 29 0 -7
BITMAP
0000
0000
0000
0000
0000
0000
3030
F060
F060
30C0
30C0
3180
3300
337C
36FE
06C6
0C7C
187C
18C6
30C6
30FE
607C
0000
0000
0000
0000
0000
0000
0000
ENDCHAR
STARTCHAR char193
ENCODING 193
SWIDTH 533 0
DWIDTH 16 0
BBX 16 29 0 -7
BITMAP
0000
0000
0000
0000
0000
0000
7C18
FE30
C630
1C60
1C60
06C0
C780
FFFC
7FFE
03C6
067C
0C7C
0CC6
18C6
18FE
307C
0000
0000
0000
0000
0000
0000
0000
ENDCHAR
STARTCHAR char194
ENCODING 194
SWIDTH 533 0
DWIDTH 16 0
BBX 16 29 0 -7
BITMAP
0000
0000
0000
0000
0000
0000
FC18
FC30
C030
F860
FC60
0CC0
CD80
FDFC
7BFE
03C6
067C
0C7C
0CC6
18C6
18FE
307C
0000
0000
0000
0000
0000
0000
0000
ENDCHAR
STARTCHAR char195
ENCODING 195
SWIDTH 533 0
DWIDTH 16 0
BBX 16 29 0 -7
BITMAP
0000
0000
0000
0000
0000
0000
FE30
FE60
0660
0CC0
18C0
1980
3300
337C
36FE
06C6
0C7C
187C
18C6
30C6
30FE
607C
0000
0000
0000
0000
0000
0000
0000
ENDCHAR
STARTCHAR char196
ENCODING 196
SWIDTH 533 0
DWIDTH 16 0
BBX 16 29 0 -7
BITMAP
0000
0000
0000
0000
FDCE
FDCE
31CE
31FE
31FE
31B6
31B6
31B6
0000
0000
0000
0000
0000
0000
0000
0000
0000
0000
0000
0000
0000
0000
0000
0000
0000
ENDCHAR
STARTCHAR char197
ENCODING 197
SWIDTH 533 0
DWIDTH 16 0
BBX 16 29 0 -7
BITMAP
0000
0000
0000
0000
0000
0000
07C0
1FF0
3FF8
3C78
783C
783C
783C
783C
783C
783C
3C78
3EF8
1EF0
7EFC
7EFC
7EFC
0000
0000
0000
0000
0000
0000
0000
ENDCHAR
STARTCHAR char198
ENCODING 198
SWIDTH 533 0
DWIDTH 16 0
BBX 16 29 0 -7
BITMAP
0000
0000
0000
0000
07E0
0FF0
0878
003C
001C
001C
079C
1FFC
1C7C
383C
383C
7038
7038
7070
7070
78E0
3FC0
1F80
0000
0000
0000
0000
0000
0000
0000
ENDCHAR
STARTCHAR char199
ENCODING 199
SWIDTH 533 0
DWIDTH 16 0
BBX 16 29 0 -7
BITMAP
0000
0000
0000
0000
0000
0000
FFFC
FFFC
FFFC
7800
3C00
1E00
0F00
0780
03C0
01E0
00F0
01E0
03C0
07C0
0780
0F00
1E00
3C00
7800
FFFE
FFFE
FFFE
0000
ENDCHAR
STARTCHAR char200
ENCODING 200
SWIDTH 533 0
DWIDTH 16 0
BBX 16 29 0 -7
BITMAP
0000
0000
0000
0000
0000
0000
0FE0
0FE0
0EE0
1EF0
1EF0
1EF0
3C78
3C78
3C78
783C
783C
783C
F81E
FFFE
FFFE
FFFE
0000
0000
0000
0000
0000
0000
0000
ENDCHAR
STARTCHAR char201
ENCODING 201
SWIDTH 533 0
DWIDTH 16 0
BBX 16 29 0 -7
BITMAP
0000
0000
0000
0000
0000
0000
0000
0000
0000
0000
1C70
3EF8
7EFC
73DC
739C
779C
7EFC
3EF8
1C78
0000
0000
0000
0000
0000
0000
0000
0000
0000
0000
ENDCHAR
STARTCHAR char202
ENCODING 202
SWIDTH 533 0
DWIDTH 16 0
BBX 16 29 0 -7
BITMAP
0000
0000
0000
0000
0000
0000
0030
0070
0060
7FFC
7FFC
7FFC
0180
0380
0700
7FFC
7FFC
7FFC
1C00
1800
3800
0000
0000
0000
0000
0000
0000
0000
0000
ENDCHAR
STARTCHAR char203
ENCODING 203
SWIDTH 533 0
DWIDTH 16 0
BBX 16 29 0 -7
BITMAP
0000
0000
0000
0000
0000
0000
000C
007C
03FC
1FF8
7FC0
7C00
6000
7C00
7FC0
1FF8
03FC
007C
000C
7FFC
7FFC
7FFC
0000
0000
0000
0000
0000
0000
0000
ENDCHAR
STARTCHAR char204
ENCODING 204
SWIDTH 533 0
DWIDTH 16 0
BBX 16 29 0 -7
BITMAP
0000
0000
0000
0000
0000
0000
6000
7C00
7F80
3FF0
03FC
007C
000C
007C
07FC
3FF0
7F80
7C00
6000
7FFC
7FFC
7FFC
0000
0000
0000
0000
0000
0000
0000
ENDCHAR
STARTCHAR char205
ENCODING 205
SWIDTH 533 0
DWIDTH 16 0
BBX 16 29 0 -7
BITMAP
0000
0000
0000
0000
0100
0380
07C0
06C0
0EE0
1C70
1830
3838
701C
701C
3838
1830
1C70
0EE0
06C0
07C0
0380
0100
0000
0000
0000
0000
0000
0000
0000
ENDCHAR
STARTCHAR char206
ENCODING 206
SWIDTH 533 0
DWIDTH 16 0
BBX 16 29 0 -7
BITMAP
0000
0000
0000
0000
0000
0000
0000
0000
0000
0000
07C0
0FE0
1FF0
3FF8
3FF8
3FF8
3FF8
3FF8
1FF0
0FE0
07C0
0000
0000
0000
0000
0000
0000
0000
0000
ENDCHAR
STARTCHAR char207
ENCODING 207
SWIDTH 533 0
DWIDTH 16 0
BBX 16 29 0 -7
BITMAP
0000
0000
0000
0000
0000
0000
0000
0000
0000
0000
07C0
0820
1010
2008
2008
2008
2008
2008
1010
0820
07C0
0000
0000
0000
0000
0000
0000
0000
0000
ENDCHAR
STARTCHAR char208
ENCODING 208
SWIDTH 533 0
DWIDTH 16 0
BBX 16 29 0 -7
BITMAP
0000
0180
0240
0420
0420
0420
07A0
0420
0420
07A0
0420
0420
07A0
0420
0420
0810
1008
2004
4002
4002
4002
4002
4002
2004
1008
0810
07E0
0000
0000
ENDCHAR
STARTCHAR char209
ENCODING 209
SWIDTH 533 0
DWIDTH 16 0
BBX 16 29 0 -7
BITMAP
3FFC
4002
598A
5252
5A52
524A
4242
4242
5A5A
4242
5BDA
43C2
5BDA
43C2
5BDA
43C2
5BDA
43C2
43C2
47E2
4FF2
5FFA
5FFA
5FFA
4FF2
47E2
4002
3FFC
0000
ENDCHAR
STARTCHAR char210
ENCODING 210
SWIDTH 533 0
DWIDTH 16 0
BBX 16 29 0 -7
BITMAP
0000
0180
0240
0420
0420
0420
0420
05A0
05A0
05A0
05A0
05A0
05A0
05A0
05A0
0990
13C8
27E4
4FF2
5FFA
5FFA
5FFA
4FF2
27E4
13C8
0810
07E0
0000
0000
ENDCHAR
STARTCHAR char211
ENCODING 211
SWIDTH 533 0
DWIDTH 16 0
BBX 16 29 0 -7
BITMAP
0000
0000
0000
0100
02B8
0448
0928
1390
27C8
4FE4
9FF2
3FF8
7FFC
7FFC
7FFC
7FFC
7FFC
7C7C
7C7C
7C7C
7C7C
7C7C
0000
0000
0000
0000
0000
0000
0000
ENDCHAR
STARTCHAR char212
ENCODING 212
SWIDTH 533 0
DWIDTH 16 0
BBX 16 29 0 -7
BITMAP
0000
0000
0000
0100
02B8
0448
0928
1290
2448
4924
9112
21C8
4104
41C4
4104
4104
4104
4384
4384
4104
4004
7FFC
0000
0000
0000
0000
0000
0000
0000
ENDCHAR
STARTCHAR char213
ENCODING 213
SWIDTH 533 0
DWIDTH 16 0
BBX 16 29 0 -7
BITMAP
0000
0820
1010
2448
4824
5114
5394
5394
5114
4924
2548
1110
0920
0100
0100
0100
0100
0100
0100
0380
07C0
0FE0
0000
0000
0000
0000
0000
0000
0000
ENDCHAR
STARTCHAR char214
ENCODING 214
SWIDTH 533 0
DWIDTH 16 0
BBX 16 29 0 -7
BITMAP
0000
0000
0000
0000
0000
0000
0000
0100
0100
2108
1010
0BA0
07C0
0FE0
EFEE
0FE0
07C0
0BA0
1010
2108
0100
0100
0000
0000
0000
0000
0000
0000
0000
ENDCHAR
STARTCHAR char215
ENCODING 215
SWIDTH 533 0
DWIDTH 16 0
BBX 16 29 0 -7
BITMAP
0000
0000
0000
0000
0000
0000
0000
0000
0280
1110
3118
0920
0540
4384
3FF8
4384
0540
0920
3118
1110
0280
0000
0000
0000
0000
0000
0000
0000
0000
ENDCHAR
STARTCHAR char216
ENCODING 216
SWIDTH 533 0
DWIDTH 16 0
BBX 16 29 0 -7
BITMAP
0000
0000
0000
0000
0000
07E0
0810
1008
2004
4422
4A52
4992
4422
4422
2244
1248
0990
05A0
05A0
0420
07E0
0000
07E0
0720
04E0
03C0
0180
0000
0000
ENDCHAR
STARTCHAR char217
ENCODING 217
SWIDTH 533 0
DWIDTH 16 0
BBX 16 29 0 -7
BITMAP
0000
0000
0000
0000
0888
1110
1110
0888
0444
0444
0888
0000
36D8
7FFC
36D8
36D8
36D8
36D8
36D8
36D8
7FFC
36D8
0000
0000
0000
0000
0000
0000
0000
ENDCHAR
STARTCHAR char218
ENCODING 218
SWIDTH 533 0
DWIDTH 16 0
BBX 16 29 0 -7
BITMAP
0000
0000
0000
0000
0000
0000
0000
0100
0100
2548
1010
0BA0
27C8
0FE0
EFEE
0FE0
27C8
0BA0
1010
2548
0100
0100
0000
0000
0000
0000
0000
0000
0000
ENDCHAR
STARTCHAR char219
ENCODING 219
SWIDTH 533 0
DWIDTH 16 0
BBX 16 29 0 -7
BITMAP
0000
0000
0000
0000
0000
0000
0000
0000
0280
1110
37D8
0920
1550
5394
3FF8
5394
1550
0920
37D8
1110
0280
0000
0000
0000
0000
0000
0000
0000
0000
ENDCHAR
STARTCHAR char220
ENCODING 220
SWIDTH 533 0
DWIDTH 16 0
BBX 16 29 0 -7
BITMAP
0000
0000
0000
0000
3018
4824
87C2
9832
A10A
4104
4104
8102
8102
8102
8082
8042
4004
4004
2008
3838
67CC
C006
0000
0000
0000
0000
0000
0000
0000
ENDCHAR
ENDFONT
